<?xml version="1.0" standalone="no"?><!DOCTYPE svg PUBLIC "-//W3C//DTD SVG 1.1//EN" "http://www.w3.org/Graphics/SVG/1.1/DTD/svg11.dtd"><svg t="1640136609920" class="icon" viewBox="0 0 1024 1024" version="1.1" xmlns="http://www.w3.org/2000/svg" p-id="2133" width="128" height="128" xmlns:xlink="http://www.w3.org/1999/xlink"><defs><style type="text/css"></style></defs><path d="M512 937.353846c-234.732308 0-425.353846-190.621538-425.353846-425.353846 0-17.329231 14.178462-31.507692 31.507692-31.507692h236.307692c17.329231 0 31.507692 14.178462 31.507693 31.507692 0 69.316923 56.713846 126.030769 126.030769 126.030769s126.030769-56.713846 126.030769-126.030769c0-17.329231 14.178462-31.507692 31.507693-31.507692h236.307692c17.329231 0 31.507692 14.178462 31.507692 31.507692 0 234.732308-190.621538 425.353846-425.353846 425.353846zM151.236923 543.507692c15.753846 185.107692 171.716923 330.830769 360.763077 330.83077s345.009231-145.723077 360.763077-330.83077H698.683077C683.716923 632.516923 605.735385 701.046154 512 701.046154s-171.716923-68.529231-186.683077-157.538462H151.236923z" fill="#33363a" p-id="2134"></path><path d="M512 118.153846c-217.403077 0-393.846154 176.443077-393.846154 393.846154h236.307692c0-86.646154 70.892308-157.538462 157.538462-157.538462s157.538462 70.892308 157.538462 157.538462h236.307692c0-217.403077-176.443077-393.846154-393.846154-393.846154z" fill="#d60909" p-id="2135"></path><path d="M905.846154 543.507692H669.538462c-17.329231 0-31.507692-14.178462-31.507693-31.507692 0-69.316923-56.713846-126.030769-126.030769-126.030769s-126.030769 56.713846-126.030769 126.030769c0 17.329231-14.178462 31.507692-31.507693 31.507692H118.153846c-17.329231 0-31.507692-14.178462-31.507692-31.507692 0-234.732308 190.621538-425.353846 425.353846-425.353846s425.353846 190.621538 425.353846 425.353846c0 17.329231-14.178462 31.507692-31.507692 31.507692z m-207.163077-63.015384h174.867692C857.009231 295.384615 701.046154 149.661538 512 149.661538S166.990769 295.384615 151.236923 480.492308h174.867692C340.283077 391.483077 418.264615 322.953846 512 322.953846s171.716923 68.529231 186.683077 157.538462z" fill="#33363a" p-id="2136"></path><path d="M512 701.046154c-103.975385 0-189.046154-85.070769-189.046154-189.046154s85.070769-189.046154 189.046154-189.046154 189.046154 85.070769 189.046154 189.046154-85.070769 189.046154-189.046154 189.046154z m0-315.076923c-69.316923 0-126.030769 56.713846-126.030769 126.030769s56.713846 126.030769 126.030769 126.030769 126.030769-56.713846 126.030769-126.030769-56.713846-126.030769-126.030769-126.030769z" fill="#33363a" p-id="2137"></path><path d="M512 512m-78.769231 0a78.769231 78.769231 0 1 0 157.538462 0 78.769231 78.769231 0 1 0-157.538462 0Z" fill="#33363a" p-id="2138"></path></svg>